<svg xmlns="http://www.w3.org/2000/svg" width="786" height="190" viewBox="0 0 786 190" fill="none">
<g filter="url(#filter0_d_372_143)">
<rect x="9" y="9" width="768" height="168" rx="84" fill="#2B2C2E" stroke="url(#paint0_linear_372_143)" stroke-width="10"/>
<path d="M69.882 89V56.064H96.424C105.762 56.064 110.96 60.204 110.96 67.656C110.914 74.924 105.716 78.926 96.332 78.926H81.888V89H69.882ZM81.888 72.164H92.422C96.608 72.164 98.908 70.508 98.908 67.472C98.908 64.482 96.608 62.826 92.422 62.826H81.888V72.164ZM105.73 89L122.152 56.064H136.09L152.144 89H139.678L137.102 83.25H120.68L118.15 89H105.73ZM123.026 76.488H134.802L129.006 63.47H128.914L123.026 76.488ZM189.246 89.92C184.278 89.92 181.794 87.068 179.908 84.354L177.838 80.904C176.458 78.972 174.434 78.052 172.272 78.052H165.234V89H153.228V56.064H180.92C189.752 56.064 194.812 59.882 194.812 66.506C194.812 71.428 191.316 74.878 185.29 76.028V76.074C186.394 76.488 187.406 77.362 188.188 78.558L190.534 82.1C191.132 82.928 191.914 83.48 193.202 83.48C193.984 83.48 195.088 83.066 195.64 82.422L197.664 87.252C195.87 88.816 192.282 89.92 189.246 89.92ZM165.234 71.29H177.332C180.782 71.29 182.806 69.772 182.806 67.242C182.806 64.666 180.782 63.148 177.332 63.148H165.234V71.29ZM198.696 89V56.064H210.702V68.116H210.794L224.87 56.064H239.958L223.95 69.496L240.05 89H225.468L215.67 76.442L210.702 80.628V89H198.696ZM277.129 89.92C272.161 89.92 269.677 87.068 267.791 84.354L265.721 80.904C264.341 78.972 262.317 78.052 260.155 78.052H253.117V89H241.111V56.064H268.803C277.635 56.064 282.695 59.882 282.695 66.506C282.695 71.428 279.199 74.878 273.173 76.028V76.074C274.277 76.488 275.289 77.362 276.071 78.558L278.417 82.1C279.015 82.928 279.797 83.48 281.085 83.48C281.867 83.48 282.971 83.066 283.523 82.422L285.547 87.252C283.753 88.816 280.165 89.92 277.129 89.92ZM253.117 71.29H265.215C268.665 71.29 270.689 69.772 270.689 67.242C270.689 64.666 268.665 63.148 265.215 63.148H253.117V71.29ZM306.201 89.828C292.907 89.828 285.041 84.124 285.041 73.82V56.064H297.047V73.176C297.047 78.512 300.589 81.134 306.247 81.134C311.905 81.134 315.401 78.512 315.401 73.176V56.064H327.361V73.82C327.361 84.124 319.541 89.828 306.201 89.828ZM330.251 89V56.064H344.695L362.405 77.546H362.451V56.064H373.767V89H359.369L341.613 67.242H341.567V89H330.251ZM398.515 89L384.163 56.064H396.353L405.783 79.754H405.875L415.213 56.064H428.507L437.983 79.754H438.029L447.367 56.064H459.511L445.159 89H431.681L421.929 65.356H421.837L411.993 89H398.515ZM496.566 89.92C491.598 89.92 489.114 87.068 487.228 84.354L485.158 80.904C483.778 78.972 481.754 78.052 479.592 78.052H472.554V89H460.548V56.064H488.24C497.072 56.064 502.132 59.882 502.132 66.506C502.132 71.428 498.636 74.878 492.61 76.028V76.074C493.714 76.488 494.726 77.362 495.508 78.558L497.854 82.1C498.452 82.928 499.234 83.48 500.522 83.48C501.304 83.48 502.408 83.066 502.96 82.422L504.984 87.252C503.19 88.816 499.602 89.92 496.566 89.92ZM472.554 71.29H484.652C488.102 71.29 490.126 69.772 490.126 67.242C490.126 64.666 488.102 63.148 484.652 63.148H472.554V71.29ZM503.987 89L520.409 56.064H534.347L550.401 89H537.935L535.359 83.25H518.937L516.407 89H503.987ZM521.283 76.488H533.059L527.263 63.47H527.171L521.283 76.488ZM551.486 89V56.064H578.028C587.366 56.064 592.564 60.204 592.564 67.656C592.518 74.924 587.32 78.926 577.936 78.926H563.492V89H551.486ZM563.492 72.164H574.026C578.212 72.164 580.512 70.508 580.512 67.472C580.512 64.482 578.212 62.826 574.026 62.826H563.492V72.164ZM594.439 89V56.064H620.981C630.319 56.064 635.517 60.204 635.517 67.656C635.471 74.924 630.273 78.926 620.889 78.926H606.445V89H594.439ZM606.445 72.164H616.979C621.165 72.164 623.465 70.508 623.465 67.472C623.465 64.482 621.165 62.826 616.979 62.826H606.445V72.164ZM637.392 89V56.064H672.122V63.516H649.03V69.036H670.282V75.43H649.03V81.548H672.582V89H637.392ZM674.55 89V56.064H697.964C710.752 56.064 717.882 61.952 717.882 72.532C717.882 83.112 710.752 89 697.964 89H674.55ZM686.234 80.858H696.308C702.656 80.858 706.244 77.868 706.244 72.532C706.244 67.196 702.656 64.16 696.308 64.16H686.234V80.858Z" fill="white"/>
<path d="M238.711 127V105.52H256.921C262.051 105.52 265.111 107.71 265.111 111.43C265.111 113.59 263.821 115.3 261.661 116.05V116.11C264.181 116.77 265.711 118.66 265.711 121.09C265.711 124.78 262.681 127 257.521 127H238.711ZM246.541 114.19H254.341C256.171 114.19 257.281 113.38 257.281 112C257.281 110.62 256.171 109.81 254.341 109.81H246.541V114.19ZM246.511 122.71H254.761C256.681 122.71 257.881 121.81 257.881 120.4C257.881 118.93 256.681 118.03 254.761 118.03H246.511V122.71ZM281.88 127.75C272.46 127.75 266.16 123.16 266.16 116.26C266.16 109.36 272.46 104.77 281.88 104.77C291.33 104.77 297.63 109.36 297.63 116.26C297.63 123.16 291.33 127.75 281.88 127.75ZM281.88 122.23C286.59 122.23 289.8 119.83 289.8 116.26C289.8 112.69 286.59 110.29 281.88 110.29C277.17 110.29 273.99 112.69 273.99 116.26C273.99 119.83 277.17 122.23 281.88 122.23ZM314.058 127.75C304.638 127.75 298.338 123.16 298.338 116.26C298.338 109.36 304.638 104.77 314.058 104.77C323.508 104.77 329.808 109.36 329.808 116.26C329.808 123.16 323.508 127.75 314.058 127.75ZM314.058 122.23C318.768 122.23 321.978 119.83 321.978 116.26C321.978 112.69 318.768 110.29 314.058 110.29C309.348 110.29 306.168 112.69 306.168 116.26C306.168 119.83 309.348 122.23 314.058 122.23ZM331.025 127V105.52H338.855V113.38H338.915L348.095 105.52H357.935L347.495 114.28L357.995 127H348.485L342.095 118.81L338.855 121.54V127H331.025ZM358.252 127V105.52H368.392L375.832 120.1H375.892L383.242 105.52H393.502V127H386.122V113.53H386.062L379.342 127H372.652L365.692 113.53H365.632V127H358.252ZM393.794 127L404.504 105.52H413.594L424.064 127H415.934L414.254 123.25H403.544L401.894 127H393.794ZM405.074 118.84H412.754L408.974 110.35H408.914L405.074 118.84ZM447.826 127.6C444.586 127.6 442.966 125.74 441.736 123.97L440.386 121.72C439.486 120.46 438.166 119.86 436.756 119.86H432.166V127H424.336V105.52H442.396C448.156 105.52 451.456 108.01 451.456 112.33C451.456 115.54 449.176 117.79 445.246 118.54V118.57C445.966 118.84 446.626 119.41 447.136 120.19L448.666 122.5C449.056 123.04 449.566 123.4 450.406 123.4C450.916 123.4 451.636 123.13 451.996 122.71L453.316 125.86C452.146 126.88 449.806 127.6 447.826 127.6ZM432.166 115.45H440.056C442.306 115.45 443.626 114.46 443.626 112.81C443.626 111.13 442.306 110.14 440.056 110.14H432.166V115.45ZM453.555 127V105.52H461.385V113.38H461.445L470.625 105.52H480.465L470.025 114.28L480.525 127H471.015L464.625 118.81L461.385 121.54V127H453.555ZM480.781 127V105.52H488.611V121.27H501.661V127H480.781ZM502.383 127V105.52H525.033V110.38H509.973V113.98H523.833V118.15H509.973V122.14H525.333V127H502.383ZM533.322 127V111.04H524.952V105.52H549.522V111.04H541.152V127H533.322Z" fill="url(#paint1_linear_372_143)"/>
</g>
<defs>
<filter id="filter0_d_372_143" x="0" y="0" width="786" height="190" filterUnits="userSpaceOnUse" color-interpolation-filters="sRGB">
<feFlood flood-opacity="0" result="BackgroundImageFix"/>
<feColorMatrix in="SourceAlpha" type="matrix" values="0 0 0 0 0 0 0 0 0 0 0 0 0 0 0 0 0 0 127 0" result="hardAlpha"/>
<feOffset dy="4"/>
<feGaussianBlur stdDeviation="2"/>
<feComposite in2="hardAlpha" operator="out"/>
<feColorMatrix type="matrix" values="0 0 0 0 0 0 0 0 0 0 0 0 0 0 0 0 0 0 0.25 0"/>
<feBlend mode="normal" in2="BackgroundImageFix" result="effect1_dropShadow_372_143"/>
<feBlend mode="normal" in="SourceGraphic" in2="effect1_dropShadow_372_143" result="shape"/>
</filter>
<linearGradient id="paint0_linear_372_143" x1="-2.5" y1="19" x2="782" y2="93" gradientUnits="userSpaceOnUse">
<stop offset="0.000210179" stop-color="#EA0B86"/>
<stop offset="1" stop-color="#E6224B"/>
</linearGradient>
<linearGradient id="paint1_linear_372_143" x1="47.3104" y1="103.287" x2="653.959" y2="331.898" gradientUnits="userSpaceOnUse">
<stop offset="0.000210179" stop-color="#EA0B86"/>
<stop offset="1" stop-color="#E6224B"/>
</linearGradient>
</defs>
</svg>
