<svg width="995" height="248" viewBox="0 0 995 248" fill="none" xmlns="http://www.w3.org/2000/svg">
<path d="M265.03 5.42857L248.63 22.5714V34H232.63V22.5714L216.287 5.42857H233.258L240.63 13.0857L248.001 5.42857H265.03ZM280.186 34.5714C266.472 34.5714 258.758 30.2286 258.758 22.5714C258.758 14.9143 266.472 10.5714 280.186 10.5714C293.901 10.5714 301.615 14.9143 301.615 22.5714C301.615 30.2286 293.901 34.5714 280.186 34.5714ZM280.186 26C283.672 26 285.615 24.7429 285.615 22.5714C285.615 20.4 283.672 19.1429 280.186 19.1429C276.701 19.1429 274.758 20.4 274.758 22.5714C274.758 24.7429 276.701 26 280.186 26ZM348.776 11.1429V34H332.776V29.8286C330.49 32.8571 326.604 34.4571 321.404 34.5714C311.519 34.5714 305.919 30.3429 305.919 22.8571V11.1429H321.919V18.3429C321.919 22.8571 323.747 25.4286 327.004 25.4286C329.747 25.4286 331.747 23.6571 332.776 20.4V11.1429H348.776ZM381.869 10.5714C387.126 10.5714 392.041 11.8286 394.898 15.0857L383.755 23.3143C381.755 21.0286 379.069 19.7143 376.269 19.7143C373.526 19.7143 371.526 21.4286 370.498 24.6857V34H354.498V11.1429H370.498V15.3143C372.783 12.2857 376.669 10.6857 381.869 10.5714ZM409.771 5.42857H425.771V19.7143C425.771 23.0286 427.771 24.8571 431.257 24.8571C434.685 24.8571 436.628 23.0286 436.628 19.7143V5.42857H452.628V19.7143C452.628 29.2 444.914 34.5714 431.2 34.5714C417.485 34.5714 409.771 29.2 409.771 19.7143V5.42857ZM485.697 10.5714C495.583 10.5714 501.183 14.8 501.183 22.2857V34H485.183V26.8C485.183 22.2857 483.354 19.7143 480.097 19.7143C477.354 19.7143 475.354 21.4286 474.326 24.6857V34H458.326V11.1429H474.326V15.3143C476.612 12.2857 480.497 10.6857 485.697 10.5714ZM526.905 34.5714C513.191 34.5714 505.477 30.2286 505.477 22.5714C505.477 14.9143 513.191 10.5714 526.905 10.5714C540.619 10.5714 548.334 14.9143 548.334 22.5714C548.334 30.2286 540.619 34.5714 526.905 34.5714ZM526.905 26C530.391 26 532.334 24.7429 532.334 22.5714C532.334 20.4 530.391 19.1429 526.905 19.1429C523.419 19.1429 521.477 20.4 521.477 22.5714C521.477 24.7429 523.419 26 526.905 26ZM576.637 13.1429C573.952 13.1429 572.409 14.1143 572.409 15.8857H580.98V23.3143H572.409V34H556.409V23.3143H552.066V15.8857H556.58C557.723 9.14286 565.094 5.42857 577.323 5.42857C579.837 5.42857 582.123 5.77143 583.666 6.34286L581.094 13.8857C580.066 13.4286 578.466 13.1429 576.637 13.1429ZM611.559 13.1429C608.873 13.1429 607.331 14.1143 607.331 15.8857H615.902V23.3143H607.331V34H591.331V23.3143H586.988V15.8857H591.502C592.645 9.14286 600.016 5.42857 612.245 5.42857C614.759 5.42857 617.045 5.77143 618.588 6.34286L616.016 13.8857C614.988 13.4286 613.388 13.1429 611.559 13.1429ZM631.052 9.54286C625.91 9.54286 623.052 8 623.052 5.25714C623.052 2.51429 625.91 0.971428 631.052 0.971428C636.195 0.971428 639.052 2.51429 639.052 5.25714C639.052 8 636.195 9.54286 631.052 9.54286ZM639.052 11.1429V34H623.052V11.1429H639.052ZM686.428 25.3143C684.828 31.2571 677.228 34.5714 665.343 34.5714C651.628 34.5714 643.914 30.2286 643.914 22.5714C643.914 14.9143 651.628 10.5714 665.343 10.5714C677.285 10.5714 684.885 13.8857 686.428 19.8286L671 21.8286C670.314 20.1143 668.314 19.1429 665.343 19.1429C661.857 19.1429 659.914 20.4 659.914 22.5714C659.914 24.7429 661.857 26 665.343 26C668.314 26 670.314 25.0286 671 23.3143L686.428 25.3143ZM699.295 9.54286C694.152 9.54286 691.295 8 691.295 5.25714C691.295 2.51429 694.152 0.971428 699.295 0.971428C704.438 0.971428 707.295 2.51429 707.295 5.25714C707.295 8 704.438 9.54286 699.295 9.54286ZM707.295 11.1429V34H691.295V11.1429H707.295ZM755.013 11.1429V34H739.013V31.7714C736.671 33.6 733.299 34.5714 729.071 34.5714C718.271 34.5714 712.156 30.2286 712.156 22.5714C712.156 14.9143 718.271 10.5714 729.071 10.5714C733.299 10.5714 736.671 11.5429 739.013 13.3714V11.1429H755.013ZM733.585 26C737.071 26 739.013 24.7429 739.013 22.5714C739.013 20.4 737.071 19.1429 733.585 19.1429C730.099 19.1429 728.156 20.4 728.156 22.5714C728.156 24.7429 730.099 26 733.585 26ZM776.709 5.42857V34H760.709V5.42857H776.709Z" fill="#2b2c2e"/>
<mask id="path-2-outside-1_177_275" maskUnits="userSpaceOnUse" x="60.7412" y="55" width="875" height="84" fill="#2b2c2e">
<rect fill="#2b2c2e" x="60.7412" y="55" width="875" height="84"/>
<path d="M142.424 57.1429C166.404 57.1429 179.951 66.33 179.951 82.5243C179.951 98.7186 166.404 107.75 142.424 107.75H106.765V135H63.1651V57.1429H142.424ZM131.679 85.95C137.597 85.95 141.022 84.7043 141.022 82.5243C141.022 80.3443 137.597 79.0986 131.679 78.9429H106.765V85.95H131.679ZM302.901 72.7143V135H259.301V128.927C252.917 133.91 243.73 136.557 232.207 136.557C202.777 136.557 186.116 124.723 186.116 103.857C186.116 82.9914 202.777 71.1571 232.207 71.1571C243.73 71.1571 252.917 73.8043 259.301 78.7871V72.7143H302.901ZM244.508 113.2C254.007 113.2 259.301 109.774 259.301 103.857C259.301 97.94 254.007 94.5143 244.508 94.5143C235.01 94.5143 229.716 97.94 229.716 103.857C229.716 109.774 235.01 113.2 244.508 113.2ZM393.008 71.1571C407.334 71.1571 420.725 74.5829 428.511 83.4586L398.147 105.881C392.697 99.6529 385.378 96.0714 377.748 96.0714C370.274 96.0714 364.824 100.743 362.021 109.619V135H318.421V72.7143H362.021V84.0814C368.25 75.8286 378.838 71.4686 393.008 71.1571ZM437.853 135V57.1429H481.453V92.1786L511.038 72.7143H554.638L513.685 99.4971L555.417 135H510.26L488.148 116.314L481.453 120.674V135H437.853ZM640.919 71.1571C655.245 71.1571 668.636 74.5829 676.422 83.4586L646.058 105.881C640.608 99.6529 633.289 96.0714 625.659 96.0714C618.185 96.0714 612.735 100.743 609.932 109.619V135H566.332V72.7143H609.932V84.0814C616.161 75.8286 626.749 71.4686 640.919 71.1571ZM800.992 72.7143V135H757.392V123.633C751.164 131.886 740.575 136.246 726.405 136.557C699.467 136.557 684.207 125.034 684.207 104.636V72.7143H727.807V92.3343C727.807 104.636 732.789 111.643 741.665 111.643C749.139 111.643 754.589 106.816 757.392 97.94V72.7143H800.992ZM891.172 71.1571C918.111 71.1571 933.371 82.68 933.371 103.079V135H889.771V115.38C889.771 103.079 884.788 96.0714 875.912 96.0714C868.438 96.0714 862.988 100.743 860.185 109.619V135H816.585V72.7143H860.185V84.0814C866.414 75.8286 877.002 71.4686 891.172 71.1571Z"/>
</mask>
<path d="M106.765 107.75V105.75H104.765V107.75H106.765ZM106.765 135V137H108.765V135H106.765ZM63.1651 135H61.1651V137H63.1651V135ZM63.1651 57.1429V55.1429H61.1651V57.1429H63.1651ZM131.679 78.9429L131.732 76.9436L131.706 76.9429H131.679V78.9429ZM106.765 78.9429V76.9429H104.765V78.9429H106.765ZM106.765 85.95H104.765V87.95H106.765V85.95ZM142.424 59.1429C154.204 59.1429 163.134 61.4069 169.059 65.417C174.88 69.3573 177.951 75.0751 177.951 82.5243H181.951C181.951 73.7792 178.248 66.8063 171.301 62.1044C164.457 57.4724 154.623 55.1429 142.424 55.1429V59.1429ZM177.951 82.5243C177.951 89.9711 174.883 95.6473 169.066 99.549C163.141 103.523 154.21 105.75 142.424 105.75V109.75C154.617 109.75 164.45 107.462 171.294 102.871C178.245 98.2084 181.951 91.2718 181.951 82.5243H177.951ZM142.424 105.75H106.765V109.75H142.424V105.75ZM104.765 107.75V135H108.765V107.75H104.765ZM106.765 133H63.1651V137H106.765V133ZM65.1651 135V57.1429H61.1651V135H65.1651ZM63.1651 59.1429H142.424V55.1429H63.1651V59.1429ZM131.679 87.95C134.734 87.95 137.34 87.6341 139.257 86.9329C141.085 86.2641 143.022 84.922 143.022 82.5243H139.022C139.022 82.5272 139.023 82.5139 139.029 82.5018C139.032 82.4934 139.023 82.5215 138.964 82.5816C138.832 82.7171 138.517 82.9443 137.883 83.1764C136.607 83.643 134.542 83.95 131.679 83.95V87.95ZM143.022 82.5243C143.022 80.1309 141.089 78.7887 139.277 78.1037C137.372 77.3837 134.776 77.0237 131.732 76.9436L131.627 80.9422C134.5 81.0178 136.575 81.3585 137.863 81.8452C138.503 82.0874 138.823 82.3195 138.96 82.4605C139.021 82.523 139.031 82.5529 139.028 82.5457C139.023 82.5345 139.022 82.5216 139.022 82.5243H143.022ZM131.679 76.9429H106.765V80.9429H131.679V76.9429ZM104.765 78.9429V85.95H108.765V78.9429H104.765ZM106.765 87.95H131.679V83.95H106.765V87.95ZM302.901 72.7143H304.901V70.7143H302.901V72.7143ZM302.901 135V137H304.901V135H302.901ZM259.301 135H257.301V137H259.301V135ZM259.301 128.927H261.301V124.829L258.071 127.351L259.301 128.927ZM259.301 78.7871L258.071 80.3638L261.301 82.8852V78.7871H259.301ZM259.301 72.7143V70.7143H257.301V72.7143H259.301ZM300.901 72.7143V135H304.901V72.7143H300.901ZM302.901 133H259.301V137H302.901V133ZM261.301 135V128.927H257.301V135H261.301ZM258.071 127.351C252.151 131.971 243.452 134.557 232.207 134.557V138.557C244.007 138.557 253.683 135.849 260.532 130.504L258.071 127.351ZM232.207 134.557C217.717 134.557 206.661 131.637 199.283 126.401C191.999 121.232 188.116 113.682 188.116 103.857H184.116C184.116 114.898 188.563 123.698 196.968 129.663C205.277 135.56 217.267 138.557 232.207 138.557V134.557ZM188.116 103.857C188.116 94.0324 191.999 86.4827 199.283 81.3135C206.661 76.0773 217.717 73.1571 232.207 73.1571V69.1571C217.267 69.1571 205.277 72.1542 196.968 78.0515C188.563 84.0159 184.116 92.8162 184.116 103.857H188.116ZM232.207 73.1571C243.452 73.1571 252.151 75.7435 258.071 80.3638L260.532 77.2105C253.683 71.8651 244.007 69.1571 232.207 69.1571V73.1571ZM261.301 78.7871V72.7143H257.301V78.7871H261.301ZM259.301 74.7143H302.901V70.7143H259.301V74.7143ZM244.508 115.2C249.45 115.2 253.58 114.317 256.54 112.435C259.609 110.485 261.301 107.523 261.301 103.857H257.301C257.301 106.109 256.347 107.818 254.394 109.06C252.332 110.37 249.065 111.2 244.508 111.2V115.2ZM261.301 103.857C261.301 100.192 259.609 97.2297 256.54 95.2789C253.58 93.3976 249.45 92.5143 244.508 92.5143V96.5143C249.065 96.5143 252.332 97.3438 254.394 98.6546C256.347 99.896 257.301 101.605 257.301 103.857H261.301ZM244.508 92.5143C239.566 92.5143 235.437 93.3976 232.477 95.2789C229.408 97.2297 227.716 100.192 227.716 103.857H231.716C231.716 101.605 232.67 99.896 234.623 98.6546C236.685 97.3438 239.952 96.5143 244.508 96.5143V92.5143ZM227.716 103.857C227.716 107.523 229.408 110.485 232.477 112.435C235.437 114.317 239.566 115.2 244.508 115.2V111.2C239.952 111.2 236.685 110.37 234.623 109.06C232.67 107.818 231.716 106.109 231.716 103.857H227.716ZM393.008 71.1571V69.1571H392.986L392.964 69.1576L393.008 71.1571ZM428.511 83.4586L429.699 85.0674L431.449 83.7751L430.015 82.1397L428.511 83.4586ZM398.147 105.881L396.642 107.198L397.854 108.584L399.335 107.49L398.147 105.881ZM362.021 109.619L360.114 109.016L360.021 109.31V109.619H362.021ZM362.021 135V137H364.021V135H362.021ZM318.421 135H316.421V137H318.421V135ZM318.421 72.7143V70.7143H316.421V72.7143H318.421ZM362.021 72.7143H364.021V70.7143H362.021V72.7143ZM362.021 84.0814H360.021V90.0514L363.617 85.2862L362.021 84.0814ZM393.008 73.1571C407.134 73.1571 419.794 76.5537 427.007 84.7774L430.015 82.1397C421.657 72.612 407.534 69.1571 393.008 69.1571V73.1571ZM427.323 81.8497L396.959 104.273L399.335 107.49L429.699 85.0674L427.323 81.8497ZM399.652 104.564C393.87 97.9563 386.024 94.0714 377.748 94.0714V98.0714C384.733 98.0714 391.524 101.349 396.642 107.198L399.652 104.564ZM377.748 94.0714C373.563 94.0714 369.861 95.3918 366.828 98.0005C363.824 100.585 361.593 104.332 360.114 109.016L363.928 110.221C365.252 106.03 367.147 103.003 369.437 101.033C371.699 99.0868 374.459 98.0714 377.748 98.0714V94.0714ZM360.021 109.619V135H364.021V109.619H360.021ZM362.021 133H318.421V137H362.021V133ZM320.421 135V72.7143H316.421V135H320.421ZM318.421 74.7143H362.021V70.7143H318.421V74.7143ZM360.021 72.7143V84.0814H364.021V72.7143H360.021ZM363.617 85.2862C369.348 77.6935 379.241 73.4602 393.052 73.1567L392.964 69.1576C378.436 69.4769 367.151 73.9636 360.425 82.8766L363.617 85.2862ZM437.853 135H435.853V137H437.853V135ZM437.853 57.1429V55.1429H435.853V57.1429H437.853ZM481.453 57.1429H483.453V55.1429H481.453V57.1429ZM481.453 92.1786H479.453V95.8884L482.552 93.8494L481.453 92.1786ZM511.038 72.7143V70.7143H510.439L509.939 71.0435L511.038 72.7143ZM554.638 72.7143L555.733 74.3881L561.351 70.7143H554.638V72.7143ZM513.685 99.4971L512.591 97.8233L510.352 99.2873L512.39 101.02L513.685 99.4971ZM555.417 135V137H560.854L556.713 133.477L555.417 135ZM510.26 135L508.969 136.528L509.528 137H510.26V135ZM488.148 116.314L489.439 114.787L488.303 113.827L487.057 114.638L488.148 116.314ZM481.453 120.674L480.361 118.998L479.453 119.59V120.674H481.453ZM481.453 135V137H483.453V135H481.453ZM439.853 135V57.1429H435.853V135H439.853ZM437.853 59.1429H481.453V55.1429H437.853V59.1429ZM479.453 57.1429V92.1786H483.453V57.1429H479.453ZM482.552 93.8494L512.138 74.3851L509.939 71.0435L480.353 90.5077L482.552 93.8494ZM511.038 74.7143H554.638V70.7143H511.038V74.7143ZM553.544 71.0405L512.591 97.8233L514.78 101.171L555.733 74.3881L553.544 71.0405ZM512.39 101.02L554.121 136.523L556.713 133.477L514.981 97.9738L512.39 101.02ZM555.417 133H510.26V137H555.417V133ZM511.551 133.472L489.439 114.787L486.857 117.842L508.969 136.528L511.551 133.472ZM487.057 114.638L480.361 118.998L482.544 122.35L489.24 117.99L487.057 114.638ZM479.453 120.674V135H483.453V120.674H479.453ZM481.453 133H437.853V137H481.453V133ZM640.919 71.1571V69.1571H640.897L640.875 69.1576L640.919 71.1571ZM676.422 83.4586L677.61 85.0674L679.36 83.7751L677.926 82.1397L676.422 83.4586ZM646.058 105.881L644.553 107.198L645.765 108.584L647.246 107.49L646.058 105.881ZM609.932 109.619L608.025 109.016L607.932 109.31V109.619H609.932ZM609.932 135V137H611.932V135H609.932ZM566.332 135H564.332V137H566.332V135ZM566.332 72.7143V70.7143H564.332V72.7143H566.332ZM609.932 72.7143H611.932V70.7143H609.932V72.7143ZM609.932 84.0814H607.932V90.0514L611.529 85.2862L609.932 84.0814ZM640.919 73.1571C655.045 73.1571 667.705 76.5537 674.919 84.7774L677.926 82.1397C669.568 72.612 655.445 69.1571 640.919 69.1571V73.1571ZM675.234 81.8497L644.87 104.273L647.246 107.49L677.61 85.0674L675.234 81.8497ZM647.563 104.564C641.781 97.9563 633.935 94.0714 625.659 94.0714V98.0714C632.644 98.0714 639.435 101.349 644.553 107.198L647.563 104.564ZM625.659 94.0714C621.474 94.0714 617.772 95.3918 614.74 98.0005C611.735 100.585 609.504 104.332 608.025 109.016L611.839 110.221C613.163 106.03 615.058 103.003 617.348 101.033C619.61 99.0868 622.371 98.0714 625.659 98.0714V94.0714ZM607.932 109.619V135H611.932V109.619H607.932ZM609.932 133H566.332V137H609.932V133ZM568.332 135V72.7143H564.332V135H568.332ZM566.332 74.7143H609.932V70.7143H566.332V74.7143ZM607.932 72.7143V84.0814H611.932V72.7143H607.932ZM611.529 85.2862C617.259 77.6935 627.152 73.4602 640.963 73.1567L640.875 69.1576C626.347 69.4769 615.062 73.9636 608.336 82.8766L611.529 85.2862ZM800.992 72.7143H802.992V70.7143H800.992V72.7143ZM800.992 135V137H802.992V135H800.992ZM757.392 135H755.392V137H757.392V135ZM757.392 123.633H759.392V117.663L755.796 122.428L757.392 123.633ZM726.405 136.557V138.557H726.427L726.449 138.557L726.405 136.557ZM684.207 72.7143V70.7143H682.207V72.7143H684.207ZM727.807 72.7143H729.807V70.7143H727.807V72.7143ZM757.392 97.94L759.299 98.5423L759.392 98.2483V97.94H757.392ZM757.392 72.7143V70.7143H755.392V72.7143H757.392ZM798.992 72.7143V135H802.992V72.7143H798.992ZM800.992 133H757.392V137H800.992V133ZM759.392 135V123.633H755.392V135H759.392ZM755.796 122.428C750.066 130.021 740.173 134.254 726.361 134.558L726.449 138.557C740.978 138.237 752.262 133.751 758.989 124.838L755.796 122.428ZM726.405 134.557C713.182 134.557 703.119 131.723 696.41 126.651C689.782 121.639 686.207 114.279 686.207 104.636H682.207C682.207 115.391 686.261 123.992 693.998 129.841C701.653 135.629 712.69 138.557 726.405 138.557V134.557ZM686.207 104.636V72.7143H682.207V104.636H686.207ZM684.207 74.7143H727.807V70.7143H684.207V74.7143ZM725.807 72.7143V92.3343H729.807V72.7143H725.807ZM725.807 92.3343C725.807 98.7119 727.092 104.009 729.781 107.766C732.538 111.616 736.628 113.643 741.665 113.643V109.643C737.827 109.643 734.987 108.166 733.034 105.437C731.013 102.615 729.807 98.2581 729.807 92.3343H725.807ZM741.665 113.643C745.868 113.643 749.572 112.273 752.598 109.625C755.594 107.003 757.821 103.223 759.299 98.5423L755.485 97.3377C754.16 101.533 752.261 104.604 749.964 106.615C747.695 108.6 744.937 109.643 741.665 109.643V113.643ZM759.392 97.94V72.7143H755.392V97.94H759.392ZM757.392 74.7143H800.992V70.7143H757.392V74.7143ZM891.172 71.1571V69.1571H891.15L891.128 69.1576L891.172 71.1571ZM933.371 135V137H935.371V135H933.371ZM889.771 135H887.771V137H889.771V135ZM860.185 109.619L858.278 109.016L858.185 109.31V109.619H860.185ZM860.185 135V137H862.185V135H860.185ZM816.585 135H814.585V137H816.585V135ZM816.585 72.7143V70.7143H814.585V72.7143H816.585ZM860.185 72.7143H862.185V70.7143H860.185V72.7143ZM860.185 84.0814H858.185V90.0514L861.781 85.2862L860.185 84.0814ZM891.172 73.1571C904.396 73.1571 914.458 75.9909 921.167 81.0637C927.796 86.0754 931.371 93.4352 931.371 103.079H935.371C935.371 92.3234 931.316 83.7224 923.58 77.8731C915.924 72.0848 904.887 69.1571 891.172 69.1571V73.1571ZM931.371 103.079V135H935.371V103.079H931.371ZM933.371 133H889.771V137H933.371V133ZM891.771 135V115.38H887.771V135H891.771ZM891.771 115.38C891.771 109.002 890.486 103.705 887.796 99.9484C885.039 96.0982 880.949 94.0714 875.912 94.0714V98.0714C879.751 98.0714 882.59 99.5482 884.544 102.277C886.564 105.099 887.771 109.456 887.771 115.38H891.771ZM875.912 94.0714C871.727 94.0714 868.025 95.3918 864.992 98.0005C861.988 100.585 859.757 104.332 858.278 109.016L862.092 110.221C863.416 106.03 865.311 103.003 867.601 101.033C869.863 99.0868 872.623 98.0714 875.912 98.0714V94.0714ZM858.185 109.619V135H862.185V109.619H858.185ZM860.185 133H816.585V137H860.185V133ZM818.585 135V72.7143H814.585V135H818.585ZM816.585 74.7143H860.185V70.7143H816.585V74.7143ZM858.185 72.7143V84.0814H862.185V72.7143H858.185ZM861.781 85.2862C867.512 77.6935 877.405 73.4602 891.216 73.1567L891.128 69.1576C876.6 69.4769 865.315 73.9636 858.589 82.8766L861.781 85.2862Z" fill="#2b2c2e" mask="url(#path-2-outside-1_177_275)"/>
<path d="M211.568 154.143L170.927 232H135.891L118.763 191.203L101.478 232H66.4427L25.8013 154.143H64.7299L84.0384 194.94L103.036 154.143L134.334 154.299L153.487 194.94L172.64 154.143H211.568ZM290.767 168.157C305.093 168.157 318.485 171.583 326.27 180.459L295.906 202.881C290.456 196.653 283.137 193.071 275.507 193.071C268.033 193.071 262.583 197.743 259.78 206.619V232H216.18V169.714H259.78V181.081C266.009 172.829 276.597 168.469 290.767 168.157ZM445.378 169.714V232H401.778V225.927C395.394 230.91 386.207 233.557 374.684 233.557C345.254 233.557 328.593 221.723 328.593 200.857C328.593 179.991 345.254 168.157 374.684 168.157C386.207 168.157 395.394 170.804 401.778 175.787V169.714H445.378ZM386.985 210.2C396.484 210.2 401.778 206.774 401.778 200.857C401.778 194.94 396.484 191.514 386.985 191.514C377.487 191.514 372.193 194.94 372.193 200.857C372.193 206.774 377.487 210.2 386.985 210.2ZM531.592 168.157C561.022 168.157 577.684 179.991 577.684 200.857C577.684 221.723 561.022 233.557 531.592 233.557C520.069 233.557 510.882 230.91 504.498 225.927V247.571H460.898V169.714H504.498V175.787C510.882 170.804 520.069 168.157 531.592 168.157ZM519.291 210.2C528.789 210.2 534.084 206.774 534.084 200.857C534.084 194.94 528.789 191.514 519.291 191.514C509.792 191.514 504.498 194.94 504.498 200.857C504.498 206.774 509.792 210.2 519.291 210.2ZM661.562 168.157C690.992 168.157 707.653 179.991 707.653 200.857C707.653 221.723 690.992 233.557 661.562 233.557C650.039 233.557 640.852 230.91 634.468 225.927V247.571H590.868V169.714H634.468V175.787C640.852 170.804 650.039 168.157 661.562 168.157ZM649.261 210.2C658.759 210.2 664.053 206.774 664.053 200.857C664.053 194.94 658.759 191.514 649.261 191.514C639.762 191.514 634.468 194.94 634.468 200.857C634.468 206.774 639.762 210.2 649.261 210.2ZM835.287 200.857C835.287 203.193 834.665 205.684 833.73 208.02H764.126C766.462 211.446 770.822 213.314 776.895 213.314C780.943 213.314 784.369 212.069 786.082 209.889L831.239 214.871C823.453 226.861 803.833 233.557 776.895 233.557C739.523 233.557 718.502 221.723 718.502 200.857C718.502 179.991 739.523 168.157 776.895 168.157C814.266 168.157 835.287 179.991 835.287 200.857ZM789.975 195.719C786.705 191.047 782.033 188.4 776.895 188.4C769.732 188.4 764.905 191.047 763.036 195.719H789.975ZM963.022 154.143V232H919.422V225.927C913.038 230.91 903.85 233.557 892.328 233.557C862.898 233.557 846.236 221.723 846.236 200.857C846.236 179.991 862.898 168.157 892.328 168.157C903.85 168.157 913.038 170.804 919.422 175.787V154.143H963.022ZM904.629 210.2C914.128 210.2 919.422 206.774 919.422 200.857C919.422 194.94 914.128 191.514 904.629 191.514C895.13 191.514 889.836 194.94 889.836 200.857C889.836 206.774 895.13 210.2 904.629 210.2Z" fill="#2b2c2e"/>
</svg>
